<svg width="618" height="309" viewBox="0 0 618 309" fill="none" xmlns="http://www.w3.org/2000/svg">
<path d="M16.1053 307.294H0V204.706H16.1053V307.294ZM80.3544 307.294H64.6803V204.706H79.2758L133.056 280.35H133.632V204.706H149.306V307.294H134.782L81.0011 231.722H80.3544V307.294ZM237.083 307.294L231.463 301.281C226.346 305.76 219.3 308.29 212.128 308.29C200.175 308.29 191.829 301.322 191.829 291.369C191.829 284.36 195.687 278.97 203.698 274.781C204.914 274.159 205.669 273.744 206.005 273.619C200.594 267.938 198.497 264.081 198.497 259.727C198.497 252.137 205.04 246.456 213.764 246.456C222.655 246.456 229.072 252.054 229.072 259.81C229.072 265.906 225.339 270.343 216.112 275.154L231.085 291.12C233.056 287.471 233.979 282.577 233.979 275.195V273.412H240.942V275.237C240.942 284.36 239.264 290.996 235.95 296.138L246.562 307.294H237.083ZM208.018 279.135C201.768 282.909 199.294 286.268 199.294 290.872C199.294 297.549 204.747 302.069 212.799 302.069C218.209 302.069 223.829 299.912 227.059 296.512L210.031 278.057C209.486 278.306 208.395 278.886 208.018 279.135ZM212.086 270.965C219.342 267.316 222.026 264.33 222.026 260.059C222.026 255.497 218.713 252.303 213.805 252.303C209.024 252.303 205.627 255.58 205.627 260.141C205.627 263.418 207.388 266.321 212.086 270.965ZM317.455 203C347.293 203 366.059 223.404 366.059 256.036C366.059 288.668 347.293 309 317.455 309C287.545 309 268.851 288.668 268.851 256.036C268.851 223.404 287.545 203 317.455 203ZM317.455 217.005C297.755 217.005 285.316 232.077 285.316 256.036C285.316 279.923 297.755 294.995 317.455 294.995C337.155 294.995 349.522 279.923 349.522 256.036C349.522 232.077 337.155 217.005 317.455 217.005ZM427 204.706V269.899C427 284.544 436.347 294.853 452.884 294.853C469.42 294.853 478.839 284.544 478.839 269.899V204.706H494.873V271.25C494.873 293.36 478.911 309 452.884 309C426.856 309 410.895 293.36 410.895 271.25V204.706H427ZM585.293 307.294H569.188V218.427H537.408V204.706H617V218.427H585.293V307.294Z" fill="#F3F0E5"/>
<path d="M427.42 189.884H424.358V162.973H388.978V189.884H385.917V134.802H388.978V160.224H424.358V134.802H427.42V189.884ZM467.424 134.802V170.645C467.424 181.143 474.245 187.861 485.25 187.861C496.255 187.861 503.076 181.143 503.076 170.645V134.802H506.137V170.76C506.137 182.784 498.115 190.686 485.25 190.686C472.385 190.686 464.363 182.784 464.363 170.76V134.802H467.424ZM542.886 149.651C543.08 140.566 550.288 134 560.053 134C569.547 134 576.911 140.527 576.911 148.964C576.911 154.804 574.198 159.27 564.975 168.775L547.498 186.983V187.136H579.003V189.884H543.08V187.594L562.96 166.828C571.563 157.934 573.849 154.193 573.849 149.078C573.849 142.093 567.804 136.71 559.976 136.71C552.032 136.71 546.064 142.169 545.87 149.651H542.886ZM614.125 189.884V150.185H617.147V189.884H614.125ZM615.636 140.413C614.357 140.413 613.272 139.382 613.272 138.084C613.272 136.787 614.357 135.794 615.636 135.794C616.914 135.794 618 136.787 618 138.084C618 139.382 616.914 140.413 615.636 140.413Z" fill="#F3F0E5"/>
<path d="M524 34H532V68L524 61V50V34Z" fill="#F3F0E5"/>
<path d="M436 5L607 117" stroke="#F3F0E5" stroke-width="9" stroke-linecap="round"/>
<path d="M436 5L265 117.941" stroke="#F3F0E5" stroke-width="9" stroke-linecap="round"/>
<path d="M185.5 66L360 184.5" stroke="#F3F0E5" stroke-width="9" stroke-linecap="round"/>
<path d="M187 99L264.964 150.672" stroke="#F3F0E5" stroke-width="9" stroke-linecap="round"/>
<path d="M185.38 66L5.5 185" stroke="#F3F0E5" stroke-width="9" stroke-linecap="round"/>
<path d="M187 99L58 184.639" stroke="#F3F0E5" stroke-width="9" stroke-linecap="round"/>
<path d="M426 49H424C420.134 49 417 52.134 417 56V58C417 61.866 420.134 65 424 65H426C429.866 65 433 61.866 433 58V56C433 52.134 429.866 49 426 49Z" fill="#F3F0E5"/>
<path d="M448 71H446C442.134 71 439 74.134 439 78V80C439 83.866 442.134 87 446 87H448C451.866 87 455 83.866 455 80V78C455 74.134 451.866 71 448 71Z" fill="#F3F0E5"/>
<path d="M426 71H424C420.134 71 417 74.134 417 78V80C417 83.866 420.134 87 424 87H426C429.866 87 433 83.866 433 80V78C433 74.134 429.866 71 426 71Z" fill="#F3F0E5"/>
<path d="M448 49H446C442.134 49 439 52.134 439 56V58C439 61.866 442.134 65 446 65H448C451.866 65 455 61.866 455 58V56C455 52.134 451.866 49 448 49Z" fill="#F3F0E5"/>
</svg>
